# xmcd CD database file
#
# Track frame offsets:
#	150
#	19907
#	34766
#	49088
#	59852
#	83179
#	97821
#	108922
#	124482
#	134275
#	143509
#	156313
#	176481
#	187175
#	199750
#	221509
#	240273
#	254066
#	263443
#	277945
#
# Disc length: 3868 seconds
#
# Revision: 0
# Processed by: cddbd v1.5.1PL2 Copyright (c) Steve Scherf et al.
# Submitted via: CDex 1.51
#
DISCID=210f1a14
DTITLE=0483-Nothin' But Country - Nothin' But Country - Vol. 1
DYEAR=2005
DGENRE=Country
TTITLE0=Big Brown Eyes - Old 97's
TTITLE1=Wicked Savior - Rex Hobart and The Misery Boys
TTITLE2=Desperado - Johnny Cash and June Carter
TTITLE3=Truck Driver's Night Run Blues - Joe Canonball Lewis
TTITLE4=Don't Need You - Alejandro Escoveda
TTITLE5=Get It While It's Hot - Earl C. Whitehead
TTITLE6=Truck Drivin' Man - Jimmy Martin
TTITLE7=Goin' Home - The Roughnecks
TTITLE8=Truck Drivin' Son Of A Gun - Dave Dudley
TTITLE9=High On Cruel - Neko Case and Her Boyfriends
TTITLE10=Movin' To Virginia - Split Lip Rayfield
TTITLE11=Only Star - Uncle Dave And The Waco Brothers
TTITLE12=Overloaded Diesel - Jimmy Griggs
TTITLE13=Rootie Tootie - Paul Howard And His Cotton Pickers
TTITLE14=South Tacoma Way - Neko Case and Her Boyfriends
TTITLE15=Sunday Morning Coming Down - Johnny Cash
TTITLE16=To Be Young - Ryan Adams
TTITLE17=Truck Driver's Queen - Moore And Napier
TTITLE18=What The Lord Hath Wrought - Robbie Fulks
TTITLE19=You Don't Know My Mind - Nitty Gritty Dirt Band
EXTD=YEAR: 2005
EXTT0=
EXTT1=
EXTT2=
EXTT3=
EXTT4=
EXTT5=
EXTT6=
EXTT7=
EXTT8=
EXTT9=
EXTT10=
EXTT11=
EXTT12=
EXTT13=
EXTT14=
EXTT15=
EXTT16=
EXTT17=
EXTT18=
EXTT19=
PLAYORDER=
